<?xml version="1.0" encoding="utf-8"?>
<!-- Generator: Adobe Illustrator 19.1.0, SVG Export Plug-In . SVG Version: 6.00 Build 0)  -->
<svg version="1.1" id="Layer_1" xmlns="http://www.w3.org/2000/svg" xmlns:xlink="http://www.w3.org/1999/xlink" x="0px" y="0px"
	 viewBox="-246 559.7 297.7 106.3" style="enable-background:new -246 559.7 297.7 106.3;" xml:space="preserve">
<style type="text/css">
	.st0{fill:#FF2400;}
	.st1{fill:#FFF200;}
	.st2{fill:#4F5B63;}
</style>
<g>
	<polygon class="st0" points="23.3,648 -7.7,666 -38.8,648 -38.8,612.2 -7.7,594.2 23.3,612.2 	"/>
	<polygon class="st1" points="-7.8,599.6 -5.1,598.2 -5.6,601.2 -3.4,603.3 -6.4,603.8 -7.7,606.5 -9.1,603.8 -12.1,603.4 
		-10,601.2 -10.5,598.2 	"/>
	<polygon class="st1" points="1.8,606.4 3.1,605.9 2.7,607.3 3.6,608.4 2.2,608.4 1.4,609.6 0.9,608.2 -0.5,607.8 0.7,607 
		0.6,605.6 	"/>
	<polygon class="st1" points="-4.5,609.5 -3.1,609 -3.5,610.4 -2.7,611.5 -4.1,611.6 -4.9,612.8 -5.3,611.4 -6.7,611 -5.6,610.1 
		-5.6,608.7 	"/>
	<polygon class="st1" points="-11.3,609.5 -10,609 -10.4,610.4 -9.5,611.5 -10.9,611.6 -11.7,612.8 -12.2,611.4 -13.6,611 
		-12.4,610.1 -12.5,608.7 	"/>
	<polygon class="st1" points="-17.3,606.4 -15.9,605.9 -16.4,607.3 -15.5,608.4 -16.9,608.4 -17.7,609.6 -18.2,608.2 -19.6,607.8 
		-18.4,607 -18.5,605.6 	"/>
</g>
<path class="st0" d="M37.1,661.2c-0.2-0.2-0.4-19.5-0.4-42.8v-28.2v-14.1h-31c-17.1,0-31-0.2-31-0.4s1.9-3.4,4.1-7l4.1-6.6h34.4
	h34.4v49.4v49.4l-7.1,0.3C40.7,661.5,37.3,661.4,37.1,661.2z"/>
<path id="path2400" class="st2" d="M-201.2,664c-28.8-4.2-48.6-31.1-44.2-59.7c2.4-15.4,12.2-30,25.1-37.4c15.5-9,37.7-9.6,52.2-1.5
	l3.8,2.1v9.3v9.3l-4.9-3.5c-9-6.4-13.5-8-24.1-8c-10.5,0-15.7,1.7-23,7.4c-15.7,12.5-17.6,41.4-3.7,56.8c12.3,13.7,36,14.7,51.8,2.2
	c2-1.6,3.9-2.9,4.2-2.9s0.6,4,0.6,9v9l-5.9,3C-178.7,663.8-190.1,665.6-201.2,664z M-97.8,664c-23.9-3.5-41.2-20.6-44.6-44.1
	c-2.5-17.8,3.8-35.3,17.1-47.2c9.9-8.9,21-12.9,35.5-13c9.6,0,18.2,1.9,24.8,5.6l3.8,2.1v9.3v9.3l-4.9-3.5
	c-7.3-5.2-13.5-7.6-21.5-8.2c-17.5-1.3-31.5,8.2-36.8,25.1c-4.7,15-0.6,32.5,9.8,41.5c6.9,6.1,14,8.5,24.9,8.4
	c7.6,0,9.9-0.4,14.8-2.7c3.2-1.5,7.5-4,9.6-5.7s4-3,4.2-3s0.2,4.2,0,9.4l-0.3,9.4l-6.7,3.1C-77.8,663.8-87.6,665.5-97.8,664z"/>
</svg>
